<svg width="1600" height="960" viewBox="0 0 1600 960" fill="none" xmlns="http://www.w3.org/2000/svg">
  <defs>
    <linearGradient id="sky" x1="800" y1="0" x2="800" y2="658" gradientUnits="userSpaceOnUse">
      <stop stop-color="#2F7FE3"/>
      <stop offset="0.48" stop-color="#69AFFF"/>
      <stop offset="1" stop-color="#DDF1FF"/>
    </linearGradient>
    <linearGradient id="hill1" x1="800" y1="468" x2="800" y2="760" gradientUnits="userSpaceOnUse">
      <stop stop-color="#87C870"/>
      <stop offset="1" stop-color="#4C8E39"/>
    </linearGradient>
    <linearGradient id="hill2" x1="800" y1="520" x2="800" y2="784" gradientUnits="userSpaceOnUse">
      <stop stop-color="#6CAD54"/>
      <stop offset="1" stop-color="#2E6B2E"/>
    </linearGradient>
    <linearGradient id="wood" x1="800" y1="778" x2="800" y2="960" gradientUnits="userSpaceOnUse">
      <stop stop-color="#9A6B3D"/>
      <stop offset="1" stop-color="#6C4321"/>
    </linearGradient>
    <linearGradient id="coat" x1="235" y1="324" x2="405" y2="760" gradientUnits="userSpaceOnUse">
      <stop stop-color="#FFFFFF"/>
      <stop offset="1" stop-color="#E5EEF8"/>
    </linearGradient>
    <linearGradient id="shirt" x1="290" y1="342" x2="356" y2="602" gradientUnits="userSpaceOnUse">
      <stop stop-color="#8ECBFF"/>
      <stop offset="1" stop-color="#4A91E8"/>
    </linearGradient>
    <filter id="shadow" x="0" y="0" width="1600" height="960" filterUnits="userSpaceOnUse" color-interpolation-filters="sRGB">
      <feDropShadow dx="0" dy="18" stdDeviation="20" flood-color="#16314E" flood-opacity="0.22"/>
    </filter>
  </defs>

  <rect width="1600" height="960" fill="url(#sky)"/>
  <circle cx="102" cy="174" r="120" fill="#FFD96A" fill-opacity="0.9"/>
  <circle cx="116" cy="174" r="150" fill="#FFF2BF" fill-opacity="0.28"/>

  <g fill="#FFFFFF" fill-opacity="0.9">
    <ellipse cx="486" cy="122" rx="70" ry="28"/>
    <ellipse cx="440" cy="134" rx="40" ry="24"/>
    <ellipse cx="538" cy="136" rx="50" ry="22"/>
    <ellipse cx="1162" cy="112" rx="84" ry="34"/>
    <ellipse cx="1110" cy="126" rx="44" ry="26"/>
    <ellipse cx="1226" cy="126" rx="52" ry="24"/>
    <ellipse cx="1372" cy="186" rx="78" ry="30"/>
    <ellipse cx="1326" cy="198" rx="42" ry="24"/>
    <ellipse cx="1430" cy="200" rx="48" ry="22"/>
  </g>

  <path d="M0 526C124 462 266 458 392 496C518 534 628 562 740 528C870 488 954 402 1084 410C1232 420 1398 520 1600 502V778H0V526Z" fill="url(#hill1)"/>
  <path d="M0 612C134 560 270 552 390 582C518 612 638 694 784 674C930 654 1046 560 1182 574C1328 590 1448 674 1600 664V786H0V612Z" fill="url(#hill2)"/>

  <g opacity="0.92">
    <rect x="662" y="454" width="78" height="74" rx="6" fill="#A74F3B"/>
    <path d="M648 458L702 424L756 458H648Z" fill="#7D3021"/>
    <rect x="734" y="474" width="44" height="54" rx="4" fill="#E8E0D5"/>
    <rect x="688" y="482" width="22" height="46" rx="3" fill="#F5EFE6"/>
    <rect x="712" y="482" width="22" height="46" rx="3" fill="#F5EFE6"/>
  </g>

  <g opacity="0.7" fill="#4A7F33">
    <rect x="84" y="546" width="14" height="118" rx="6"/>
    <rect x="108" y="514" width="13" height="150" rx="6"/>
    <circle cx="114" cy="488" r="54"/>
    <circle cx="82" cy="526" r="42"/>
    <circle cx="146" cy="524" r="40"/>
  </g>

  <g filter="url(#shadow)">
    <g transform="translate(138 184)">
      <ellipse cx="180" cy="610" rx="118" ry="24" fill="#24384D" fill-opacity="0.18"/>
      <path d="M94 280C94 220 144 170 204 170C264 170 314 220 314 280V610H94V280Z" fill="url(#coat)"/>
      <path d="M172 188H238L274 610H136L172 188Z" fill="url(#shirt)"/>
      <path d="M174 186L204 232L236 186H174Z" fill="#FFFFFF"/>
      <path d="M126 298C138 270 162 252 190 252H218C246 252 270 270 282 298L326 470C334 502 310 532 278 532H130C98 532 74 502 82 470L126 298Z" fill="url(#coat)"/>
      <path d="M96 322C82 344 74 372 74 402V610H154L134 406L96 322Z" fill="url(#coat)"/>
      <path d="M312 322C326 344 334 372 334 402V610H254L274 406L312 322Z" fill="url(#coat)"/>
      <circle cx="204" cy="112" r="78" fill="#E3B48F"/>
      <path d="M128 112C128 58 164 18 218 18C266 18 300 48 308 92C286 84 258 78 224 78C182 78 150 92 128 112Z" fill="#2C292B"/>
      <path d="M270 122C264 166 238 192 204 192C170 192 144 166 138 122C158 104 182 94 214 94C240 94 258 102 270 122Z" fill="#E3B48F"/>
      <circle cx="176" cy="116" r="7" fill="#2E241F"/>
      <circle cx="234" cy="116" r="7" fill="#2E241F"/>
      <path d="M180 154C194 164 214 164 228 154" stroke="#8D5C4A" stroke-width="8" stroke-linecap="round"/>
      <path d="M180 214L202 246L224 214" stroke="#A8B9CC" stroke-width="6" stroke-linecap="round"/>
      <path d="M168 244C150 252 138 266 132 286" stroke="#3E4E62" stroke-width="8" stroke-linecap="round"/>
      <path d="M240 244C258 252 270 266 276 286" stroke="#3E4E62" stroke-width="8" stroke-linecap="round"/>
      <circle cx="126" cy="302" r="18" fill="none" stroke="#53677D" stroke-width="8"/>
      <circle cx="282" cy="302" r="18" fill="none" stroke="#53677D" stroke-width="8"/>
      <path d="M160 610L192 442L134 372" stroke="#D5E2EF" stroke-width="18" stroke-linecap="round" stroke-linejoin="round"/>
      <path d="M248 610L234 474L296 384" stroke="#D5E2EF" stroke-width="18" stroke-linecap="round" stroke-linejoin="round"/>
      <rect x="206" y="404" width="56" height="56" rx="12" fill="#FFFFFF" stroke="#D7E6F6" stroke-width="4"/>
      <circle cx="234" cy="424" r="12" fill="#2D8A56"/>
      <path d="M226 438C230 430 238 430 242 438" stroke="#2D8A56" stroke-width="4" stroke-linecap="round"/>
    </g>

    <g transform="translate(966 210)">
      <ellipse cx="402" cy="534" rx="162" ry="26" fill="#22384B" fill-opacity="0.18"/>

      <g transform="translate(190 46)">
        <ellipse cx="140" cy="150" rx="90" ry="66" fill="#FAF4EC"/>
        <ellipse cx="214" cy="116" rx="58" ry="48" fill="#221E1F"/>
        <ellipse cx="96" cy="126" rx="44" ry="42" fill="#E5C48F"/>
        <rect x="92" y="190" width="26" height="132" rx="12" fill="#D1B48A"/>
        <rect x="170" y="190" width="24" height="132" rx="12" fill="#D1B48A"/>
        <rect x="220" y="190" width="22" height="132" rx="11" fill="#D1B48A"/>
        <ellipse cx="138" cy="146" rx="28" ry="18" fill="#F4E7D8"/>
        <path d="M62 106C50 88 42 66 42 38C42 20 56 8 72 8C88 8 102 22 102 40C102 64 86 94 62 106Z" fill="#E7C37E"/>
        <path d="M92 88C74 68 64 42 64 0C64 -22 82 -38 102 -38C122 -38 140 -22 140 0C140 34 124 66 92 88Z" transform="translate(38 106)" fill="#E6C680"/>
      </g>

      <g transform="translate(358 0)">
        <ellipse cx="138" cy="178" rx="102" ry="80" fill="#F9F7F0"/>
        <ellipse cx="216" cy="124" rx="54" ry="50" fill="#F3F1EA"/>
        <ellipse cx="136" cy="172" rx="26" ry="24" fill="#171617"/>
        <ellipse cx="166" cy="136" rx="34" ry="28" fill="#171617"/>
        <ellipse cx="206" cy="178" rx="24" ry="20" fill="#171617"/>
        <ellipse cx="244" cy="130" rx="18" ry="34" fill="#171617"/>
        <rect x="88" y="228" width="22" height="142" rx="11" fill="#D6CAB6"/>
        <rect x="152" y="228" width="24" height="142" rx="12" fill="#D6CAB6"/>
        <rect x="214" y="228" width="22" height="142" rx="11" fill="#D6CAB6"/>
        <ellipse cx="238" cy="148" rx="16" ry="11" fill="#2B2222"/>
      </g>

      <g transform="translate(158 250)">
        <ellipse cx="116" cy="112" rx="72" ry="54" fill="#B5743E"/>
        <ellipse cx="176" cy="96" rx="38" ry="32" fill="#C28348"/>
        <rect x="78" y="150" width="18" height="96" rx="9" fill="#8A582C"/>
        <rect x="132" y="150" width="18" height="96" rx="9" fill="#8A582C"/>
        <rect x="168" y="140" width="16" height="106" rx="8" fill="#8A582C"/>
        <ellipse cx="174" cy="102" rx="10" ry="8" fill="#342621"/>
      </g>

      <g transform="translate(58 344)">
        <ellipse cx="96" cy="82" rx="66" ry="52" fill="#F8F4E7"/>
        <ellipse cx="158" cy="90" rx="24" ry="22" fill="#F6F0E0"/>
        <rect x="62" y="122" width="14" height="72" rx="7" fill="#CABEA8"/>
        <rect x="106" y="122" width="14" height="72" rx="7" fill="#CABEA8"/>
        <rect x="142" y="124" width="12" height="70" rx="6" fill="#CABEA8"/>
      </g>

      <g transform="translate(286 356)">
        <ellipse cx="82" cy="70" rx="56" ry="40" fill="#FCFAF2"/>
        <ellipse cx="130" cy="74" rx="20" ry="18" fill="#F5EFDF"/>
        <rect x="52" y="102" width="12" height="60" rx="6" fill="#C6BBA6"/>
        <rect x="86" y="102" width="12" height="60" rx="6" fill="#C6BBA6"/>
        <rect x="116" y="102" width="10" height="60" rx="5" fill="#C6BBA6"/>
      </g>
    </g>

    <g transform="translate(280 662)">
      <rect x="0" y="0" width="92" height="146" rx="14" fill="#6C4927"/>
      <rect x="8" y="8" width="76" height="32" rx="10" fill="#CBA547"/>
      <rect x="16" y="48" width="60" height="84" rx="10" fill="#E8F0FA"/>

      <rect x="106" y="34" width="108" height="108" rx="12" fill="#FFFFFF"/>
      <rect x="106" y="34" width="108" height="24" rx="12" fill="#2F80DD"/>
      <rect x="120" y="68" width="78" height="14" rx="7" fill="#22446B" fill-opacity="0.18"/>
      <rect x="120" y="90" width="56" height="12" rx="6" fill="#22446B" fill-opacity="0.14"/>

      <rect x="228" y="22" width="76" height="128" rx="16" fill="#704627"/>
      <rect x="242" y="44" width="48" height="84" rx="10" fill="#E8F3FF"/>
      <rect x="236" y="0" width="60" height="34" rx="12" fill="#2D2B30"/>

      <rect x="320" y="48" width="88" height="110" rx="18" fill="#F2F6FF"/>
      <rect x="332" y="10" width="62" height="52" rx="18" fill="#FFFFFF"/>
      <rect x="346" y="72" width="36" height="40" rx="8" fill="#9FD2FF"/>

      <rect x="426" y="62" width="72" height="94" rx="16" fill="#FFFFFF"/>
      <rect x="446" y="24" width="30" height="48" rx="12" fill="#F6FAFF"/>
      <rect x="436" y="94" width="48" height="28" rx="10" fill="#A5D678"/>

      <rect x="522" y="18" width="146" height="188" rx="26" fill="#FFF9F0"/>
      <rect x="544" y="80" width="100" height="64" rx="10" fill="#F2A32D"/>
      <rect x="544" y="150" width="82" height="14" rx="7" fill="#233B59" fill-opacity="0.18"/>

      <rect x="690" y="40" width="162" height="166" rx="20" fill="#FBF7EE"/>
      <path d="M690 64H852V206H690V64Z" fill="#DDECB2"/>
      <path d="M702 150C724 118 746 124 768 154C792 132 818 130 842 158V206H702V150Z" fill="#2B6A3D"/>

      <rect x="0" y="164" width="176" height="72" rx="12" fill="#E9EFEA"/>
      <rect x="4" y="168" width="168" height="64" rx="10" fill="#245B48"/>
      <rect x="104" y="174" width="48" height="54" rx="8" fill="#F0F5FA"/>

      <rect x="196" y="178" width="150" height="60" rx="12" fill="#ECEFF4"/>
      <rect x="200" y="182" width="142" height="52" rx="10" fill="#7CB058"/>
      <rect x="278" y="188" width="54" height="40" rx="6" fill="#F5F7FB"/>

      <g fill="#F7F7FA" stroke="#D6D7DF" stroke-width="2">
        <circle cx="442" cy="214" r="16"/>
        <circle cx="486" cy="214" r="16"/>
        <circle cx="530" cy="214" r="16"/>
        <circle cx="574" cy="214" r="16"/>
        <circle cx="442" cy="258" r="16"/>
        <circle cx="486" cy="258" r="16"/>
        <circle cx="530" cy="258" r="16"/>
        <circle cx="574" cy="258" r="16"/>
      </g>

      <rect x="628" y="212" width="178" height="36" rx="12" fill="#EDEFF3"/>
      <rect x="620" y="230" width="186" height="24" rx="10" fill="#3AA05B"/>
      <rect x="786" y="206" width="32" height="48" rx="8" fill="#F6F7FB"/>
    </g>
  </g>

  <rect y="778" width="1600" height="182" fill="url(#wood)"/>
  <path d="M0 812C186 790 384 786 598 798C812 810 1034 826 1268 806C1396 794 1508 790 1600 796V960H0V812Z" fill="#5D351A" fill-opacity="0.22"/>
</svg>