<svg width="128" height="128" viewBox="0 0 128 128" fill="none" xmlns="http://www.w3.org/2000/svg">
  <rect width="128" height="128" rx="28" fill="#1A5C3A"/>
  <path d="M64 24L96 36V58C96 79.2 82.6 98.8 64 106C45.4 98.8 32 79.2 32 58V36L64 24Z" fill="#F4C84A"/>
  <path d="M64 37L85 45V58C85 72.6 76 85.9 64 91.2C52 85.9 43 72.6 43 58V45L64 37Z" fill="white"/>
  <path d="M63.1 48C56.8 48 52 53.1 52 59.4C52 68.9 63.1 79.9 63.1 79.9C63.1 79.9 74.2 68.9 74.2 59.4C74.2 53.1 69.3 48 63.1 48Z" fill="#1A5C3A"/>
  <path d="M68.5 52.5C73.8 52.7 78 57 78 62.3C78 67.8 74 72.1 68.8 72.9C71.3 70.6 72.8 67.5 72.8 64C72.8 59.5 70.2 55.6 66.4 53.7C67.1 53.1 67.8 52.7 68.5 52.5Z" fill="#F4C84A"/>
</svg>